# AST/ASF file generated using VICON BodyLanguage
# -----------------------------------------------
:version 1.10
:name VICON
:units
  mass 1.0
  length 0.45
  angle deg
:documentation
   .ast/.asf automatically generated from VICON data using
   VICON BodyBuilder and BodyLanguage model FoxedUp or BRILLIANT.MOD
:root
   order TX TY TZ RX RY RZ
   axis XYZ
   position 0 0 0  
   orientation 0 0 0 
:bonedata
  begin
     id 1 
     name lhipjoint
     direction 0.606768 -0.715223 0.346827 
     length 2.41543 
     axis 0 0 0  XYZ
  end
  begin
     id 2 
     name lfemur
     direction 0.34202 -0.939693 0  
     length 7.2778  
     axis 0 0 20  XYZ
    dof rx ry rz
    limits (-160.0 20.0)
           (-70.0 70.0)
           (-60.0 70.0)
  end
  begin
     id 3 
     name ltibia
     direction 0.34202 -0.939693 0   
     length 7.61811   
     axis 0 0 20   XYZ
    dof rx
    limits (-10.0 170.0)
  end
  begin
     id 4 
     name lfoot
     direction 0.0823924 -0.226371 0.97055   
     length 2.33618   
     axis -90 7.62852e-016 20   XYZ
    dof rx rz
    limits (-45.0 90.0)
           (-70.0 20.0)
  end
  begin
     id 5 
     name ltoes
     direction 1.53554e-011 -4.21934e-011 1   
     length 1.17015   
     axis -90 7.62852e-016 20   XYZ
    dof rx
    limits (-90.0 20.0)
  end
  begin
     id 6 
     name rhipjoint
     direction -0.6077 -0.714582 0.346516   
     length 2.4176  
     axis 0 0 0  XYZ 
  end
  begin
     id 7 
     name rfemur
     direction -0.34202 -0.939693 0   
     length 7.28127   
     axis 0 0 -20   XYZ
    dof rx ry rz
    limits (-160.0 20.0)
           (-70.0 70.0)
           (-70.0 60.0)
  end
  begin
     id 8 
     name rtibia
     direction -0.34202 -0.939693 0   
     length 7.77648   
     axis 0 0 -20   XYZ
    dof rx
    limits (-10.0 170.0)
 end
 begin
     id 9 
     name rfoot
     direction -0.0809463 -0.222398 0.97159   
     length 2.37533  
     axis -90 -7.62852e-016 -20   XYZ
    dof rx rz
    limits (-45.0 90.0)
           (-20.0 70.0)
  end
  begin
     id 10 
     name rtoes
     direction -1.53568e-011 -4.21714e-011 1   
     length 1.18972   
     axis -90 -7.62852e-016 -20   XYZ
    dof rx
    limits (-90.0 20.0)
  end
  begin
     id 11 
     name lowerback
     direction 0.010968 0.991932 -0.126297   
     length 2.21698   
     axis 0 0 0   XYZ
    dof rx ry rz
    limits (-20.0 45.0)
           (-30.0 30.0)
           (-30.0 30.0)
  end
  begin
     id 12 
     name upperback
     direction 0.0167007 0.997503 -0.0686276   
     length 2.22371   
     axis 0 0 0   XYZ
    dof rx ry rz
    limits (-20.0 45.0)
           (-30.0 30.0)
           (-30.0 30.0)
  end
  begin
     id 13 
     name thorax
     direction 0.0111721 0.999885 -0.0102878   
     length 2.25242   
     axis 0 0 0   XYZ
    dof rx ry rz
    limits (-20.0 45.0)
           (-30.0 30.0)
           (-30.0 30.0)
  end
  begin
     id 14 
     name lowerneck
     direction -0.0120265 0.990428 0.137508   
     length 1.57674   
     axis 0 0 0   XYZ
    dof rx ry rz
    limits (-20.0 45.0)
           (-30.0 30.0)
           (-30.0 30.0)
  end
  begin
     id 15 
     name upperneck
     direction 0.0175669 0.998907 0.0433089   
     length 1.5618   
     axis 0 0 0   XYZ
    dof rx ry rz
    limits (-20.0 45.0)
           (-30.0 30.0)
           (-30.0 30.0)
  end
  begin
     id 16
     name head
     direction 0.00754609 0.99997 0.00185367  
     length 1.60579  
     axis 0 0 0   XYZ
    dof rx ry rz
    limits (-20.0 45.0)
           (-30.0 30.0)
           (-30.0 30.0)
  end
  begin
     id 17 
     name lclavicle
     direction 0.885866 0.429166 -0.176231  
     length 3.44967  
     axis 0 0 0   XYZ
    dof ry rz
    limits (-20.0 10.0)
           (0.0 20.0)
  end
  begin
     id 18 
     name lhumerus
     direction 1 -4.48973e-011 -1.90255e-027   
     length 5.20607   
     axis 180 -30 -90   XYZ
    dof rx ry rz
    limits (-60.0 90.0)
           (-90.0 90.0)
           (-90.0 90.0)
  end
  begin
     id 19
     name lradius
     direction 1 -4.48956e-011 9.87925e-027   
     length 3.39961   
     axis 180 -30 -90   XYZ
    dof rx
    limits (-10.0 170.0)
  end
  begin
     id 20
     name lwrist
     direction 1 -4.48985e-011 1.73247e-026   
     length 1.6998   
     axis -9.60847e-015 90 90   XYZ
    dof ry
    limits (-180.0 0.0)
 end
  begin
     id 21 
     name lhand
     direction 1 -4.48798e-011 3.46119e-026   
     length 0.519693   
     axis -2.21073e-014 90 90   XYZ
    dof rx rz
    limits (-90.0 90.0)
           (-45.0 45.0)
  end
  begin
     id 22 
     name lfingers
     direction 1 -4.48938e-011 6.92797e-026   
     length 0.41899   
     axis -4.42155e-014 90 90   XYZ
    dof rx
    limits (0.0 90.0)
  end
  begin
     id 23
     name lthumb
     direction 0.707107 -6.34952e-011 0.707107   
     length 0.601588   
     axis -90 45 6.0103e-014   XYZ
    dof rx rz
    limits (-45.0 45.0)
           (-45.0 45.0)
  end
  begin
     id 24 
     name rclavicle
     direction -0.866736 0.456792 -0.200276   
     length 3.45032  
     axis 0 0 0   XYZ 
    dof ry rz
    limits (-10.0 20.0)
           (-20.0 0.0)
  end
  begin
     id 25 
     name rhumerus
     direction -1 -4.4897e-011 8.65094e-028  
     length 5.32214   
     axis 180 30 90   XYZ
    dof rx ry rz
    limits (-90.0 60.0)
           (-90.0 90.0)
           (-90.0 90.0)
  end
  begin
     id 26 
     name rradius
     direction -1 -4.48987e-011 1.08427e-026   
     length 3.51208   
     axis 180 30 90   XYZ
    dof rx
    limits (-10.0 170.0)
  end
  begin
     id 27 
     name rwrist
     direction -1 -4.48961e-011 1.73222e-026   
     length 1.75604   
     axis -9.60847e-015 -90 -90   XYZ
    dof ry
    limits (-180.0 0.0)
  end
  begin
     id 28
     name rhand
     direction -1 -4.48895e-011 3.46314e-026   
     length 0.586681   
     axis -2.21073e-014 -90 -90   XYZ
    dof rx rz
    limits (-90.0 90.0)
           (-45.0 45.0)
  end
  begin
     id 29
     name rfingers
     direction -1 -4.48968e-011 6.92916e-026   
     length 0.472997   
     axis -4.42155e-014 -90 -90   XYZ
    dof rx
    limits (0.0 90.0)
  end
  begin
     id 30
     name rthumb
     direction -0.707107 -6.34848e-011 0.707107   
     length 0.679133   
     axis -90 -45 -6.0103e-014   XYZ
    dof rx rz
    limits (-45.0 45.0)
           (-45.0 45.0)
  end
:hierarchy
  begin
    root lhipjoint rhipjoint lowerback
    lhipjoint lfemur
    lfemur ltibia
    ltibia lfoot
    lfoot ltoes
    rhipjoint rfemur
    rfemur rtibia
    rtibia rfoot
    rfoot rtoes
    lowerback upperback
    upperback thorax
    thorax lowerneck lclavicle rclavicle
    lowerneck upperneck
    upperneck head
    lclavicle lhumerus
    lhumerus lradius
    lradius lwrist
    lwrist lhand lthumb
    lhand lfingers
    rclavicle rhumerus
    rhumerus rradius
    rradius rwrist
    rwrist rhand rthumb
    rhand rfingers
  end

#!OML:ASF H:\Dans Jumps\Project 1\Capture day 1\Session 1\subject.ASF
:FULLY-SPECIFIED
:DEGREES
56
root 0.13373 17.5786 -13.5152 7.63208 0.0013772 -1.39162
lowerback -3.28313 -0.726686 0.0861171
upperback 2.71958 -1.04611 1.64822
thorax 4.67946 -0.54629 1.57912
lowerneck -13.0198 0.593951 -1.90184
upperneck 32.7972 1.02429 1.05222
head 13.1289 0.347548 0.894955
rclavicle -7.90169e-015 3.77691e-015
rhumerus -26.1548 -28.953 -74.1954
rradius 26.1155
rwrist 32.3411
rhand -18.1695 -26.2996
rfingers 7.12502
rthumb 8.10675 -56.1242
lclavicle -7.90169e-015 3.77691e-015
lhumerus -20.9135 4.87712 86.3794
lradius 20.419
lwrist 0.768977
lhand -24.2084 -3.30789
lfingers 7.12502
lthumb 2.27605 26.6597
rfemur -12.8545 -3.60205 20.8891
rtibia 20.6815
rfoot -14.4133 -2.86829
rtoes 11.1731
lfemur -12.5066 7.52868 -19.2242
ltibia 18.6708
lfoot -11.2202 6.56457
ltoes -1.72888
57
root 0.134379 17.5795 -13.5215 7.65115 -0.00478394 -1.38533
lowerback -3.25285 -0.725572 0.074539
upperback 2.71482 -1.04351 1.64621
thorax 4.65736 -0.545279 1.58408
lowerneck -13.0333 0.59571 -1.90752
upperneck 32.7947 1.02768 1.05543
head 13.1307 0.348761 0.897777
rclavicle 1.98785e-015 -3.18055e-015
rhumerus -26.095 -28.9074 -74.2383
rradius 26.0929
rwrist 32.3701
rhand -18.154 -26.3034
rfingers 7.12502
rthumb 8.12173 -56.1274
lclavicle 1.98785e-015 -3.18055e-015
lhumerus -20.9062 4.89211 86.4003
lradius 20.3894
lwrist 0.743356
lhand -24.2174 -3.35379
lfingers 7.12502
lthumb 2.26742 26.6139
rfemur -12.9004 -3.59814 20.882
rtibia 20.6812
rfoot -14.3881 -2.86432
rtoes 11.2035
lfemur -12.5365 7.5356 -19.2381
ltibia 18.6437
lfoot -11.2034 6.52232
ltoes -1.64873
58
root 0.13495 17.5805 -13.5277 7.66851 -0.00746024 -1.38287
lowerback -3.22167 -0.725946 0.0666012
upperback 2.71003 -1.04318 1.64628
thorax 4.63476 -0.54531 1.58897
lowerneck -13.0475 0.597999 -1.91377
upperneck 32.79 1.03194 1.05886
head 13.1316 0.350327 0.900897
rclavicle 1.16786e-014 -8.94531e-015
rhumerus -26.0319 -28.8634 -74.2809
rradius 26.0722
rwrist 32.3935
rhand -18.1399 -26.3044
rfingers 7.12502
rthumb 8.1353 -56.1278
lclavicle 1.16786e-014 -8.94531e-015
lhumerus -20.8956 4.90714 86.4193
lradius 20.3567
lwrist 0.717697
lhand -24.2295 -3.38321
lfingers 7.12502
lthumb 2.25575 26.5846
rfemur -12.9428 -3.59854 20.8799
rtibia 20.6793
rfoot -14.3641 -2.85941
rtoes 11.23
lfemur -12.5671 7.54079 -19.2471
ltibia 18.6213
lfoot -11.1914 6.47657
ltoes -1.55161
59
root 0.135523 17.5814 -13.5337 7.68524 -0.0079157 -1.38235
lowerback -3.19291 -0.726766 0.0629922
upperback 2.7042 -1.04369 1.64648
thorax 4.61241 -0.545613 1.5915
lowerneck -13.0582 0.600021 -1.91603
upperneck 32.7819 1.03609 1.05789
head 13.1304 0.351793 0.901514
rclavicle -5.96354e-015 1.0138e-014
rhumerus -25.97 -28.8253 -74.3209
rradius 26.0524
rwrist 32.4165
rhand -18.1224 -26.3048
rfingers 7.12502
rthumb 8.15221 -56.1275
lclavicle -5.96354e-015 1.0138e-014
lhumerus -20.8855 4.91466 86.4368
lradius 20.3253
lwrist 0.700193
lhand -24.2478 -3.40062
lfingers 7.12502
lthumb 2.23803 26.5674
rfemur -12.9821 -3.60556 20.8802
rtibia 20.6752
rfoot -14.3417 -2.84933
rtoes 11.2491
lfemur -12.5991 7.54398 -19.2538
ltibia 18.6041
lfoot -11.1819 6.43034
ltoes -1.44078
60
root 0.136087 17.5822 -13.5394 7.70007 -0.00613961 -1.3845
lowerback -3.16453 -0.726955 0.0646042
upperback 2.69873 -1.04364 1.64663
thorax 4.59054 -0.545468 1.59109
lowerneck -13.0661 0.601665 -1.9149
upperneck 32.7681 1.03929 1.05511
head 13.1262 0.353088 0.900611
rclavicle 1.90336e-014 -1.19271e-014
rhumerus -25.9082 -28.7894 -74.3603
rradius 26.0353
rwrist 32.4329
rhand -18.1087 -26.3055
rfingers 7.12502
rthumb 8.16542 -56.1277
lclavicle 1.90336e-014 -1.19271e-014
lhumerus -20.8721 4.91237 86.453
lradius 20.2932
lwrist 0.683427
lhand -24.266 -3.40119
lfingers 7.12502
lthumb 2.22044 26.567
rfemur -13.0172 -3.61614 20.8834
rtibia 20.6689
rfoot -14.3203 -2.83706
rtoes 11.2661
lfemur -12.6315 7.54687 -19.2574
ltibia 18.5919
lfoot -11.1744 6.38483
ltoes -1.33359
61
root 0.136676 17.583 -13.5451 7.71408 0.000210649 -1.38762
lowerback -3.13846 -0.727664 0.0687025
upperback 2.69485 -1.04451 1.64764
thorax 4.57163 -0.545721 1.59007
lowerneck -13.0726 0.602433 -1.91298
upperneck 32.7469 1.04163 1.0503
head 13.1186 0.353921 0.89856
rclavicle 7.70291e-015 -1.61016e-014
rhumerus -25.8432 -28.7556 -74.3989
rradius 26.0206
rwrist 32.4483
rhand -18.1002 -26.3034
rfingers 7.12502
rthumb 8.17364 -56.1253
lclavicle 7.70291e-015 -1.61016e-014
lhumerus -20.8549 4.90652 86.4683
lradius 20.2631
lwrist 0.662038
lhand -24.2806 -3.39823
lfingers 7.12502
lthumb 2.20641 26.5701
rfemur -13.0496 -3.63281 20.8878
rtibia 20.6616
rfoot -14.301 -2.82221
rtoes 11.2735
lfemur -12.6648 7.54994 -19.2598
ltibia 18.5835
lfoot -11.1681 6.33695
ltoes -1.22449
62
root 0.137247 17.5837 -13.5506 7.72642 0.013236 -1.38812
lowerback -3.11135 -0.730237 0.0712449
upperback 2.69132 -1.04777 1.64882
thorax 4.5526 -0.547225 1.58994
lowerneck -13.0783 0.602463 -1.91112
upperneck 32.7215 1.0431 1.04485
head 13.109 0.354325 0.896095
rclavicle 6.01324e-015 -1.61016e-014
rhumerus -25.7788 -28.7136 -74.4385
rradius 26.014
rwrist 32.4485
rhand -18.0987 -26.3022
rfingers 7.12502
rthumb 8.17509 -56.124
lclavicle 6.01324e-015 -1.61016e-014
lhumerus -20.8377 4.89965 86.482
lradius 20.2365
lwrist 0.632384
lhand -24.2969 -3.39472
lfingers 7.12502
lthumb 2.19058 26.5738
rfemur -13.0791 -3.65422 20.8896
rtibia 20.6548
rfoot -14.2829 -2.80839
rtoes 11.2813
lfemur -12.6978 7.54968 -19.2644
ltibia 18.5776
lfoot -11.1628 6.28782
ltoes -1.12329
